# XSI Wavefront OBJ Export v3.0
# File Created: Sat Apr 06 15:12:03 2013
# XSI Version: 6.0.2006.1218
o elevator
# Hierarchy (from self to top father)
g elevator

#begin 137 vertices
v -2.850824 -0.046804 -5.881264
v 0.000000 -0.015662 -7.021399
v -0.344857 -0.016463 -7.003548
v -2.759071 -0.102622 -5.848593
v -0.345569 -0.179371 -5.347916
v 0.000000 0.022944 -4.993783
v 0.000000 0.026601 -6.090925
v 0.000000 0.051035 -5.313471
v -1.957462 -0.111042 -5.342533
v -0.345661 -0.139923 -5.036789
v 0.000000 -0.049137 -4.890663
v 0.000000 -0.029731 -7.021955
v -1.957328 -0.022334 -6.879603
v -1.957464 -0.046680 -5.262129
v -0.345672 -0.048778 -4.936429
v 0.000000 -0.144307 -4.993783
v -0.345180 0.023789 -6.103727
v -1.957386 -0.110355 -6.192529
v -1.957463 0.002067 -5.342533
v -0.345662 0.020254 -5.036789
v 0.000000 -0.185496 -5.313471
v -1.957382 0.004751 -6.192431
v 0.000000 -0.142423 -6.090992
v -1.957447 0.021064 -5.591784
v -0.345569 0.047158 -5.347917
v -0.344962 -0.030902 -7.004142
v -0.345200 -0.138207 -6.103799
v -2.850824 -0.034955 -6.744028
v -2.759071 -0.030018 -6.760825
v -1.957346 -0.038284 -6.880386
v -2.759071 -0.004985 -5.848593
v -2.759071 -0.014348 -6.276690
v -2.687707 -0.013539 -5.644394
v -2.759071 -0.084721 -6.276757
v -1.957447 -0.138897 -5.591784
v -2.687707 -0.089946 -5.644394
v -2.759071 -0.040684 -6.761359
v -2.759071 -0.046747 -5.637616
v -2.850824 -0.042432 -6.288614
v 0.000000 0.043457 -5.108427
v -0.053980 0.051035 -5.313473
v -0.345644 0.039900 -5.148364
v -0.054042 0.022944 -4.993785
v -2.850824 -0.045159 -6.067804
v -2.850824 -0.063952 -6.288639
v -2.759071 -0.097794 -6.041981
v -2.850824 -0.075450 -5.883080
v -0.345643 -0.168729 -5.148364
v -1.112440 -0.126773 -5.165798
v -1.957459 -0.131383 -5.431921
v -1.112379 -0.160995 -5.451244
v 0.000000 0.006324 -6.549304
v -0.053504 -0.015662 -7.021401
v -0.345008 0.004465 -6.547373
v -0.053720 0.026601 -6.090927
v 0.000000 -0.008285 -4.918479
v -0.345670 -0.009654 -4.963501
v -0.054048 -0.049137 -4.890664
v -2.759071 -0.007871 -6.041981
v -2.850824 -0.026436 -6.288603
v -2.850824 -0.023401 -5.883080
v 0.000000 0.043461 -5.659975
v -0.345391 0.039904 -5.685140
v -2.759071 -0.026705 -5.651253
v -2.759071 -0.008193 -5.731961
v -2.850824 -0.047093 -5.757743
v -0.345669 -0.096070 -4.963501
v -1.112447 -0.047701 -5.073719
v -1.957464 -0.080076 -5.283819
v 0.000000 -0.098517 -4.918480
v -0.054041 -0.144307 -4.993785
v 0.000000 -0.090953 -6.549581
v -0.053733 -0.142423 -6.090994
v -0.345066 -0.089180 -6.547669
v -0.053575 -0.029731 -7.021957
v -2.759071 -0.098116 -5.731961
v -2.759071 -0.070973 -5.651253
v 0.000000 -0.174384 -5.108427
v -0.053980 -0.185496 -5.313473
v -0.345395 -0.168734 -5.685139
v -1.957418 -0.131384 -5.861923
v -1.112133 -0.125560 -6.142212
v -1.112441 0.012186 -5.165797
v -1.957464 -0.019053 -5.283819
v 0.000000 -0.174390 -5.659974
v -2.850824 -0.038896 -6.514942
v -2.850824 -0.038245 -6.744261
v -2.759071 -0.064492 -6.517553
v -1.957363 -0.077321 -6.533793
v -1.111974 -0.034413 -6.950692
v -2.483811 -0.098465 -6.241049
v -2.483811 -0.121605 -5.737864
v -1.111904 -0.018865 -6.949985
v -1.957354 -0.008321 -6.533401
v -1.112119 0.015351 -6.142124
v -1.112379 0.035526 -5.451244
v -1.957460 0.015940 -5.431921
v -2.483811 -0.040536 -6.812005
v -2.759071 -0.021911 -6.517286
v -2.850824 -0.032553 -6.743977
v -1.957417 0.015940 -5.861923
v -2.483811 -0.098915 -5.528720
v -2.483811 -0.046485 -5.461253
v -2.483811 -0.006776 -5.528720
v -2.483811 0.008699 -5.737864
v -2.483811 -0.004551 -6.240959
v -2.483811 -0.026332 -6.811291
v -0.054030 0.043457 -5.108429
v -2.850824 -0.072038 -6.067801
v -1.112428 -0.151763 -5.268164
v -0.053606 0.006324 -6.549306
v -0.054047 -0.008285 -4.918481
v -2.850824 -0.024101 -6.067801
v -0.053860 0.043461 -5.659977
v -2.850824 -0.025391 -5.765013
v -1.112446 -0.088729 -5.098558
v -0.054046 -0.098517 -4.918481
v -0.053644 -0.090953 -6.549583
v -2.850824 -0.073327 -5.765013
v -0.054029 -0.174384 -5.108429
v -1.112263 -0.151766 -5.760623
v -1.112446 -0.013760 -5.098558
v -0.053863 -0.174390 -5.659976
v -2.850824 -0.052052 -6.515055
v -1.112043 -0.083860 -6.541922
v -2.483811 -0.115485 -5.964532
v -1.112005 -0.001112 -6.541569
v -1.112429 0.029229 -5.268164
v -2.483811 -0.071890 -6.524734
v -2.850824 -0.029350 -6.514913
v -1.112260 0.029232 -5.760624
v -2.483811 -0.115485 -5.603725
v -2.483811 -0.073690 -5.479452
v -2.483811 -0.023980 -5.479452
v -2.483811 0.004524 -5.603725
v -2.483811 0.004524 -5.964532
v -2.483811 -0.015078 -6.524378
#end 137 vertices

#begin 480 normals
vn -0.011188 0.999142 -0.039889
vn -0.019562 0.999118 -0.037149
vn -0.018019 0.999109 -0.038169
vn -0.010699 0.999103 -0.040966
vn -0.022777 0.999162 -0.034005
vn -0.019562 0.999118 -0.037149
vn -0.011188 0.999142 -0.039889
vn -0.012299 0.999256 -0.036545
vn -0.053197 0.998154 -0.029304
vn -0.019562 0.999118 -0.037149
vn -0.022777 0.999162 -0.034005
vn -0.079023 0.996517 -0.026614
vn -0.018019 0.999109 -0.038169
vn -0.019562 0.999118 -0.037149
vn -0.053197 0.998154 -0.029304
vn -0.039831 0.998751 -0.030180
vn -0.014401 0.999539 -0.026743
vn -0.027163 0.999323 -0.024818
vn -0.022777 0.999162 -0.034005
vn -0.012299 0.999256 -0.036545
vn -0.038129 0.999253 0.006369
vn -0.027163 0.999323 -0.024818
vn -0.014401 0.999539 -0.026743
vn -0.021573 0.999745 0.006616
vn -0.101922 0.994612 -0.018950
vn -0.027163 0.999323 -0.024818
vn -0.038129 0.999253 0.006369
vn -0.121052 0.992626 0.006257
vn -0.022777 0.999162 -0.034005
vn -0.027163 0.999323 -0.024818
vn -0.101922 0.994612 -0.018950
vn -0.079023 0.996517 -0.026614
vn -0.042718 0.994664 0.093908
vn -0.070235 0.993353 0.091192
vn -0.038129 0.999253 0.006369
vn -0.021573 0.999745 0.006616
vn -0.132503 0.962045 0.238561
vn -0.070235 0.993353 0.091192
vn -0.042718 0.994664 0.093908
vn -0.083357 0.964944 0.248865
vn -0.152347 0.982651 0.105772
vn -0.070235 0.993353 0.091192
vn -0.132503 0.962045 0.238561
vn -0.185430 0.955617 0.228935
vn -0.038129 0.999253 0.006369
vn -0.070235 0.993353 0.091192
vn -0.152347 0.982651 0.105772
vn -0.121052 0.992626 0.006257
vn -0.175915 0.797116 0.577633
vn -0.282439 0.783890 0.552942
vn -0.132503 0.962045 0.238561
vn -0.083357 0.964944 0.248865
vn -0.449449 0.042566 0.892291
vn -0.282439 0.783890 0.552942
vn -0.175915 0.797116 0.577633
vn -0.229983 0.596259 0.769144
vn -0.448877 0.739300 0.501941
vn -0.282439 0.783890 0.552942
vn -0.449449 0.042566 0.892291
vn -0.676907 0.032701 0.735342
vn -0.132503 0.962045 0.238561
vn -0.282439 0.783890 0.552942
vn -0.448877 0.739300 0.501941
vn -0.185430 0.955617 0.228935
vn -0.202751 -0.721279 0.662305
vn -0.320923 -0.706659 0.630588
vn -0.449449 0.042566 0.892291
vn -0.244966 -0.523400 0.816116
vn -0.182257 -0.925182 0.332898
vn -0.320923 -0.706659 0.630588
vn -0.202751 -0.721279 0.662305
vn -0.116558 -0.930212 0.348024
vn -0.492902 -0.665806 0.560134
vn -0.320923 -0.706659 0.630588
vn -0.182257 -0.925182 0.332898
vn -0.254152 -0.913198 0.318554
vn -0.449449 0.042566 0.892291
vn -0.320923 -0.706659 0.630588
vn -0.492902 -0.665806 0.560134
vn -0.676907 0.032701 0.735342
vn -0.061832 -0.988747 0.136217
vn -0.098855 -0.986329 0.131846
vn -0.182257 -0.925182 0.332898
vn -0.116558 -0.930212 0.348024
vn -0.053072 -0.998552 0.008764
vn -0.098855 -0.986329 0.131846
vn -0.061832 -0.988747 0.136217
vn -0.031352 -0.999461 0.009686
vn -0.213767 -0.965408 0.149304
vn -0.098855 -0.986329 0.131846
vn -0.053072 -0.998552 0.008764
vn -0.174514 -0.984639 0.005605
vn -0.182257 -0.925182 0.332898
vn -0.098855 -0.986329 0.131846
vn -0.213767 -0.965408 0.149304
vn -0.254152 -0.913198 0.318554
vn -0.014401 0.999539 -0.026743
vn -0.011582 0.999532 -0.028328
vn -0.016949 0.999832 0.007004
vn -0.021573 0.999745 0.006616
vn -0.009599 0.999204 -0.038731
vn -0.011582 0.999532 -0.028328
vn -0.014401 0.999539 -0.026743
vn -0.012299 0.999256 -0.036545
vn -0.010171 0.999506 -0.029724
vn -0.011582 0.999532 -0.028328
vn -0.009599 0.999204 -0.038731
vn -0.008369 0.999139 -0.040631
vn -0.016949 0.999832 0.007004
vn -0.011582 0.999532 -0.028328
vn -0.010171 0.999506 -0.029724
vn -0.014935 0.999861 0.007349
vn -1.000000 -0.000000 0.000000
vn -1.000000 -0.000000 0.000000
vn -1.000000 -0.000000 0.000000
vn -1.000000 -0.000000 0.000000
vn -0.053197 0.998154 -0.029304
vn -0.080714 0.996469 -0.023105
vn -0.056745 0.998103 -0.023886
vn -0.039831 0.998751 -0.030180
vn -0.000009 0.959637 0.281240
vn -0.000004 0.994281 0.106796
vn -0.013232 0.994239 0.106364
vn -0.024934 0.959641 0.280119
vn -0.000000 0.999972 0.007544
vn -0.006988 0.999947 0.007511
vn -0.013232 0.994239 0.106364
vn -0.000004 0.994281 0.106796
vn -0.014935 0.999861 0.007349
vn -0.028042 0.994167 0.104144
vn -0.013232 0.994239 0.106364
vn -0.006988 0.999947 0.007511
vn -0.052635 0.960148 0.274490
vn -0.024934 0.959641 0.280119
vn -0.013232 0.994239 0.106364
vn -0.028042 0.994167 0.104144
vn -1.000000 0.000000 0.000000
vn -1.000000 0.000000 0.000000
vn -1.000000 0.000000 0.000000
vn -1.000000 0.000000 0.000000
vn -1.000000 0.000000 0.000000
vn -1.000000 0.000000 0.000000
vn -1.000000 0.000000 0.000000
vn -1.000000 0.000000 0.000000
vn -0.122888 -0.990270 -0.065294
vn -0.153331 -0.987448 -0.037896
vn -0.253808 -0.966690 -0.033030
vn -0.205681 -0.976996 -0.056346
vn -0.174514 -0.984639 0.005605
vn -0.276217 -0.961090 0.003058
vn -0.253808 -0.966690 -0.033030
vn -0.153331 -0.987448 -0.037896
vn -0.023507 -0.999666 0.010760
vn -0.042326 -0.987647 0.150869
vn -0.047695 -0.988421 0.144045
vn -0.026233 -0.999603 0.010255
vn -0.074851 -0.921302 0.381576
vn -0.085348 -0.926535 0.366401
vn -0.047695 -0.988421 0.144045
vn -0.042326 -0.987647 0.150869
vn -0.116558 -0.930212 0.348024
vn -0.061832 -0.988747 0.136217
vn -0.047695 -0.988421 0.144045
vn -0.085348 -0.926535 0.366401
vn -0.031352 -0.999461 0.009686
vn -0.026233 -0.999603 0.010255
vn -0.047695 -0.988421 0.144045
vn -0.061832 -0.988747 0.136217
vn 0.000001 0.999133 -0.041643
vn 0.000002 0.998971 -0.045357
vn -0.003328 0.998973 -0.045190
vn -0.003894 0.999132 -0.041484
vn 0.000002 0.998917 -0.046521
vn -0.003063 0.998921 -0.046351
vn -0.003328 0.998973 -0.045190
vn 0.000002 0.998971 -0.045357
vn -0.006526 0.998946 -0.045439
vn -0.007117 0.998994 -0.044287
vn -0.003328 0.998973 -0.045190
vn -0.003063 0.998921 -0.046351
vn -0.008369 0.999139 -0.040631
vn -0.003894 0.999132 -0.041484
vn -0.003328 0.998973 -0.045190
vn -0.007117 0.998994 -0.044287
vn -0.000028 0.562836 0.826569
vn -0.000021 0.775651 0.631162
vn -0.050158 0.775983 0.628756
vn -0.064270 0.563183 0.823829
vn -0.000009 0.959637 0.281240
vn -0.024934 0.959641 0.280119
vn -0.050158 0.775983 0.628756
vn -0.000021 0.775651 0.631162
vn -0.052635 0.960148 0.274490
vn -0.106197 0.778340 0.618797
vn -0.050158 0.775983 0.628756
vn -0.024934 0.959641 0.280119
vn -0.136327 0.567192 0.812224
vn -0.064270 0.563183 0.823829
vn -0.050158 0.775983 0.628756
vn -0.106197 0.778340 0.618797
vn -0.121052 0.992626 0.006257
vn -0.101922 0.994612 -0.018950
vn -0.165625 0.986086 -0.014228
vn -0.190388 0.981689 0.006190
vn -0.079023 0.996517 -0.026614
vn -0.126670 0.991728 -0.020724
vn -0.165625 0.986086 -0.014228
vn -0.101922 0.994612 -0.018950
vn -1.000000 0.000000 0.000000
vn -1.000000 0.000000 0.000000
vn -1.000000 0.000000 0.000000
vn -1.000000 0.000000 0.000000
vn -1.000000 0.000000 0.000000
vn -1.000000 0.000000 0.000000
vn -1.000000 0.000000 0.000000
vn -1.000000 0.000000 0.000000
vn -0.000000 0.999972 0.007544
vn 0.000001 0.999536 -0.030474
vn -0.004730 0.999528 -0.030357
vn -0.006988 0.999947 0.007511
vn 0.000001 0.999133 -0.041643
vn -0.003894 0.999132 -0.041484
vn -0.004730 0.999528 -0.030357
vn 0.000001 0.999536 -0.030474
vn -0.008369 0.999139 -0.040631
vn -0.010171 0.999506 -0.029724
vn -0.004730 0.999528 -0.030357
vn -0.003894 0.999132 -0.041484
vn -0.014935 0.999861 0.007349
vn -0.006988 0.999947 0.007511
vn -0.004730 0.999528 -0.030357
vn -0.010171 0.999506 -0.029724
vn -0.676907 0.032701 0.735342
vn -0.448877 0.739300 0.501941
vn -0.676202 0.690254 0.257489
vn -0.947011 0.012739 0.320948
vn -0.185430 0.955617 0.228935
vn -0.152347 0.982651 0.105772
vn -0.676202 0.690254 0.257489
vn -0.448877 0.739300 0.501941
vn -0.121052 0.992626 0.006257
vn -0.190388 0.981689 0.006190
vn -0.676202 0.690254 0.257489
vn -0.152347 0.982651 0.105772
vn -1.000000 0.000000 0.000000
vn -0.947011 0.012739 0.320948
vn -0.676202 0.690254 0.257489
vn -1.000000 0.000000 0.000000
vn -0.074851 -0.921302 0.381576
vn -0.122966 -0.698328 0.705137
vn -0.143098 -0.711267 0.688202
vn -0.085348 -0.926535 0.366401
vn -0.145245 -0.494933 0.856706
vn -0.170627 -0.510822 0.842584
vn -0.143098 -0.711267 0.688202
vn -0.122966 -0.698328 0.705137
vn -0.244966 -0.523400 0.816116
vn -0.202751 -0.721279 0.662305
vn -0.143098 -0.711267 0.688202
vn -0.170627 -0.510822 0.842584
vn -0.116558 -0.930212 0.348024
vn -0.085348 -0.926535 0.366401
vn -0.143098 -0.711267 0.688202
vn -0.202751 -0.721279 0.662305
vn -0.000013 -0.920495 0.390753
vn -0.000024 -0.695230 0.718788
vn -0.058013 -0.695549 0.716133
vn -0.035413 -0.920483 0.389175
vn -0.000029 -0.490801 0.871272
vn -0.068397 -0.491116 0.868405
vn -0.058013 -0.695549 0.716133
vn -0.000024 -0.695230 0.718788
vn -0.145245 -0.494933 0.856706
vn -0.122966 -0.698328 0.705137
vn -0.058013 -0.695549 0.716133
vn -0.068397 -0.491116 0.868405
vn -0.074851 -0.921302 0.381576
vn -0.035413 -0.920483 0.389175
vn -0.058013 -0.695549 0.716133
vn -0.122966 -0.698328 0.705137
vn 0.000004 -0.991706 -0.128529
vn 0.000004 -0.992769 -0.120037
vn -0.003370 -0.992818 -0.119590
vn -0.002671 -0.991762 -0.128066
vn 0.000003 -0.995688 -0.092766
vn -0.005063 -0.995709 -0.092399
vn -0.003370 -0.992818 -0.119590
vn 0.000004 -0.992769 -0.120037
vn -0.010909 -0.995843 -0.090434
vn -0.007199 -0.993083 -0.117193
vn -0.003370 -0.992818 -0.119590
vn -0.005063 -0.995709 -0.092399
vn -0.005642 -0.992068 -0.125575
vn -0.002671 -0.991762 -0.128066
vn -0.003370 -0.992818 -0.119590
vn -0.007199 -0.993083 -0.117193
vn -0.174514 -0.984639 0.005605
vn -0.213767 -0.965408 0.149304
vn -0.715352 -0.639347 0.281970
vn -0.276217 -0.961090 0.003058
vn -0.254152 -0.913198 0.318554
vn -0.492902 -0.665806 0.560134
vn -0.715352 -0.639347 0.281970
vn -0.213767 -0.965408 0.149304
vn -0.676907 0.032701 0.735342
vn -0.947011 0.012739 0.320948
vn -0.715352 -0.639347 0.281970
vn -0.492902 -0.665806 0.560134
vn -1.000000 0.000000 0.000000
vn -1.000000 0.000000 0.000000
vn -0.715352 -0.639347 0.281970
vn -0.947011 0.012739 0.320948
vn -0.000000 -0.999939 0.011050
vn -0.000005 -0.987956 0.154733
vn -0.019962 -0.987855 0.154092
vn -0.010998 -0.999879 0.011000
vn -0.000013 -0.920495 0.390753
vn -0.035413 -0.920483 0.389175
vn -0.019962 -0.987855 0.154092
vn -0.000005 -0.987956 0.154733
vn -0.074851 -0.921302 0.381576
vn -0.042326 -0.987647 0.150869
vn -0.019962 -0.987855 0.154092
vn -0.035413 -0.920483 0.389175
vn -0.023507 -0.999666 0.010760
vn -0.010998 -0.999879 0.011000
vn -0.019962 -0.987855 0.154092
vn -0.042326 -0.987647 0.150869
vn -0.010909 -0.995843 -0.090434
vn -0.015630 -0.998543 -0.051652
vn -0.017381 -0.998641 -0.049129
vn -0.012186 -0.996216 -0.086056
vn -0.023507 -0.999666 0.010760
vn -0.026233 -0.999603 0.010255
vn -0.017381 -0.998641 -0.049129
vn -0.015630 -0.998543 -0.051652
vn -0.031352 -0.999461 0.009686
vn -0.019614 -0.998737 -0.046262
vn -0.017381 -0.998641 -0.049129
vn -0.026233 -0.999603 0.010255
vn -0.013887 -0.996616 -0.081013
vn -0.012186 -0.996216 -0.086056
vn -0.017381 -0.998641 -0.049129
vn -0.019614 -0.998737 -0.046262
vn -0.136327 0.567192 0.812224
vn -0.106197 0.778340 0.618797
vn -0.123432 0.788974 0.601901
vn -0.159816 0.583479 0.796248
vn -0.052635 0.960148 0.274490
vn -0.060108 0.963009 0.262681
vn -0.123432 0.788974 0.601901
vn -0.106197 0.778340 0.618797
vn -0.083357 0.964944 0.248865
vn -0.175915 0.797116 0.577633
vn -0.123432 0.788974 0.601901
vn -0.060108 0.963009 0.262681
vn -0.229983 0.596259 0.769144
vn -0.159816 0.583479 0.796248
vn -0.123432 0.788974 0.601901
vn -0.175915 0.797116 0.577633
vn 0.000003 -0.995688 -0.092766
vn 0.000002 -0.998594 -0.053011
vn -0.007263 -0.998579 -0.052797
vn -0.005063 -0.995709 -0.092399
vn -0.000000 -0.999939 0.011050
vn -0.010998 -0.999879 0.011000
vn -0.007263 -0.998579 -0.052797
vn 0.000002 -0.998594 -0.053011
vn -0.023507 -0.999666 0.010760
vn -0.015630 -0.998543 -0.051652
vn -0.007263 -0.998579 -0.052797
vn -0.010998 -0.999879 0.011000
vn -0.010909 -0.995843 -0.090434
vn -0.005063 -0.995709 -0.092399
vn -0.007263 -0.998579 -0.052797
vn -0.015630 -0.998543 -0.051652
vn -0.122888 -0.990270 -0.065294
vn -0.205681 -0.976996 -0.056346
vn -0.131758 -0.988566 -0.073325
vn -0.080361 -0.993151 -0.084817
vn -1.000000 0.000000 0.000000
vn -1.000000 -0.000000 0.000000
vn -1.000000 -0.000000 0.000000
vn -1.000000 0.000000 0.000000
vn -1.000000 -0.000000 0.000000
vn -1.000000 -0.000000 0.000000
vn -1.000000 -0.000000 0.000000
vn -1.000000 -0.000000 0.000000
vn -0.056476 -0.994232 -0.091173
vn -0.080361 -0.993151 -0.084817
vn -0.131758 -0.988566 -0.073325
vn -0.088941 -0.992903 -0.078956
vn -0.005642 -0.992068 -0.125575
vn -0.007199 -0.993083 -0.117193
vn -0.008141 -0.993698 -0.111797
vn -0.006451 -0.992759 -0.119946
vn -0.010909 -0.995843 -0.090434
vn -0.012186 -0.996216 -0.086056
vn -0.008141 -0.993698 -0.111797
vn -0.007199 -0.993083 -0.117193
vn -0.013887 -0.996616 -0.081013
vn -0.010298 -0.994366 -0.105503
vn -0.008141 -0.993698 -0.111797
vn -0.012186 -0.996216 -0.086056
vn -0.009041 -0.993514 -0.113354
vn -0.006451 -0.992759 -0.119946
vn -0.008141 -0.993698 -0.111797
vn -0.010298 -0.994366 -0.105503
vn -0.174514 -0.984639 0.005605
vn -0.153331 -0.987448 -0.037896
vn -0.036225 -0.998389 -0.043680
vn -0.053072 -0.998552 0.008764
vn -0.122888 -0.990270 -0.065294
vn -0.027177 -0.996717 -0.076270
vn -0.036225 -0.998389 -0.043680
vn -0.153331 -0.987448 -0.037896
vn -0.013887 -0.996616 -0.081013
vn -0.019614 -0.998737 -0.046262
vn -0.036225 -0.998389 -0.043680
vn -0.027177 -0.996717 -0.076270
vn -0.031352 -0.999461 0.009686
vn -0.053072 -0.998552 0.008764
vn -0.036225 -0.998389 -0.043680
vn -0.019614 -0.998737 -0.046262
vn -0.008369 0.999139 -0.040631
vn -0.007117 0.998994 -0.044287
vn -0.008237 0.999073 -0.042256
vn -0.009599 0.999204 -0.038731
vn -0.006526 0.998946 -0.045439
vn -0.007594 0.999030 -0.043378
vn -0.008237 0.999073 -0.042256
vn -0.007117 0.998994 -0.044287
vn -0.010699 0.999103 -0.040966
vn -0.011188 0.999142 -0.039889
vn -0.008237 0.999073 -0.042256
vn -0.007594 0.999030 -0.043378
vn -0.012299 0.999256 -0.036545
vn -0.009599 0.999204 -0.038731
vn -0.008237 0.999073 -0.042256
vn -0.011188 0.999142 -0.039889
vn -0.052635 0.960148 0.274490
vn -0.028042 0.994167 0.104144
vn -0.031871 0.994542 0.099354
vn -0.060108 0.963009 0.262681
vn -0.014935 0.999861 0.007349
vn -0.016949 0.999832 0.007004
vn -0.031871 0.994542 0.099354
vn -0.028042 0.994167 0.104144
vn -0.021573 0.999745 0.006616
vn -0.042718 0.994664 0.093908
vn -0.031871 0.994542 0.099354
vn -0.016949 0.999832 0.007004
vn -0.083357 0.964944 0.248865
vn -0.060108 0.963009 0.262681
vn -0.031871 0.994542 0.099354
vn -0.042718 0.994664 0.093908
vn -0.122888 -0.990270 -0.065294
vn -0.080361 -0.993151 -0.084817
vn -0.020378 -0.994842 -0.099364
vn -0.027177 -0.996717 -0.076270
vn -0.056476 -0.994232 -0.091173
vn -0.017531 -0.994123 -0.106825
vn -0.020378 -0.994842 -0.099364
vn -0.080361 -0.993151 -0.084817
vn -0.009041 -0.993514 -0.113354
vn -0.010298 -0.994366 -0.105503
vn -0.020378 -0.994842 -0.099364
vn -0.017531 -0.994123 -0.106825
vn -0.013887 -0.996616 -0.081013
vn -0.027177 -0.996717 -0.076270
vn -0.020378 -0.994842 -0.099364
vn -0.010298 -0.994366 -0.105503
vn -1.000000 0.000000 0.000000
vn -1.000000 0.000000 0.000000
vn -1.000000 -0.000000 0.000000
vn -1.000000 -0.000000 0.000000
vn -0.079023 0.996517 -0.026614
vn -0.053197 0.998154 -0.029304
vn -0.080714 0.996469 -0.023105
vn -0.126670 0.991728 -0.020724
#end 480 vertex normals

#begin 120 faces
f 13//4 107//3 137//2 94//1 
f 22//8 94//7 137//6 106//5 
f 32//12 106//11 137//10 99//9 
f 29//16 99//15 137//14 107//13 
f 22//20 106//19 136//18 101//17 
f 24//24 101//23 136//22 105//21 
f 31//28 105//27 136//26 59//25 
f 32//32 59//31 136//30 106//29 
f 24//36 105//35 135//34 97//33 
f 19//40 97//39 135//38 104//37 
f 33//44 104//43 135//42 65//41 
f 31//48 65//47 135//46 105//45 
f 19//52 104//51 134//50 84//49 
f 14//56 84//55 134//54 103//53 
f 38//60 103//59 134//58 64//57 
f 33//64 64//63 134//62 104//61 
f 14//68 103//67 133//66 69//65 
f 9//72 69//71 133//70 102//69 
f 36//76 102//75 133//74 77//73 
f 38//80 77//79 133//78 103//77 
f 9//84 102//83 132//82 50//81 
f 35//88 50//87 132//86 92//85 
f 4//92 92//91 132//90 76//89 
f 36//96 76//95 132//94 102//93 
f 24//100 96//99 131//98 101//97 
f 22//104 101//103 131//102 95//101 
f 17//108 95//107 131//106 63//105 
f 25//112 63//111 131//110 96//109 
f 28//116 86//115 130//114 100//113 
f 29//120 100//119 130//118 99//117 
f 6//121 40//122 108//123 43//124 
f 8//125 41//126 108//127 40//128 
f 25//129 42//130 108//131 41//132 
f 20//133 43//134 108//135 42//136 
f 1//137 44//138 109//139 47//140 
f 39//141 45//142 109//143 44//144 
f 34//145 46//146 109//147 45//148 
f 4//149 47//150 109//151 46//152 
f 5//153 48//154 110//155 51//156 
f 10//157 49//158 110//159 48//160 
f 9//161 50//162 110//163 49//164 
f 35//165 51//166 110//167 50//168 
f 7//169 52//170 111//171 55//172 
f 2//173 53//174 111//175 52//176 
f 3//177 54//178 111//179 53//180 
f 17//181 55//182 111//183 54//184 
f 11//185 56//186 112//187 58//188 
f 6//189 43//190 112//191 56//192 
f 20//193 57//194 112//195 43//196 
f 15//197 58//198 112//199 57//200 
f 31//201 59//202 113//203 61//204 
f 32//205 60//206 113//207 59//208 
f 39//209 44//210 113//211 60//212 
f 1//213 61//214 113//215 44//216 
f 8//217 62//218 114//219 41//220 
f 7//221 55//222 114//223 62//224 
f 17//225 63//226 114//227 55//228 
f 25//229 41//230 114//231 63//232 
f 38//233 64//234 115//235 66//236 
f 33//237 65//238 115//239 64//240 
f 31//241 61//242 115//243 65//244 
f 1//245 66//246 115//247 61//248 
f 10//249 67//250 116//251 49//252 
f 15//253 68//254 116//255 67//256 
f 14//257 69//258 116//259 68//260 
f 9//261 49//262 116//263 69//264 
f 16//265 70//266 117//267 71//268 
f 11//269 58//270 117//271 70//272 
f 15//273 67//274 117//275 58//276 
f 10//277 71//278 117//279 67//280 
f 12//281 72//282 118//283 75//284 
f 23//285 73//286 118//287 72//288 
f 27//289 74//290 118//291 73//292 
f 26//293 75//294 118//295 74//296 
f 4//297 76//298 119//299 47//300 
f 36//301 77//302 119//303 76//304 
f 38//305 66//306 119//307 77//308 
f 1//309 47//310 119//311 66//312 
f 21//313 78//314 120//315 79//316 
f 16//317 71//318 120//319 78//320 
f 10//321 48//322 120//323 71//324 
f 5//325 79//326 120//327 48//328 
f 27//329 80//330 121//331 82//332 
f 5//333 51//334 121//335 80//336 
f 35//337 81//338 121//339 51//340 
f 18//341 82//342 121//343 81//344 
f 15//345 57//346 122//347 68//348 
f 20//349 83//350 122//351 57//352 
f 19//353 84//354 122//355 83//356 
f 14//357 68//358 122//359 84//360 
f 23//361 85//362 123//363 73//364 
f 21//365 79//366 123//367 85//368 
f 5//369 80//370 123//371 79//372 
f 27//373 73//374 123//375 80//376 
f 34//377 45//378 124//379 88//380 
f 39//381 86//382 124//383 45//384 
f 28//385 87//386 124//387 86//388 
f 37//389 88//390 124//391 87//392 
f 26//393 74//394 125//395 90//396 
f 27//397 82//398 125//399 74//400 
f 18//401 89//402 125//403 82//404 
f 30//405 90//406 125//407 89//408 
f 4//409 46//410 126//411 92//412 
f 34//413 91//414 126//415 46//416 
f 18//417 81//418 126//419 91//420 
f 35//421 92//422 126//423 81//424 
f 17//425 54//426 127//427 95//428 
f 3//429 93//430 127//431 54//432 
f 13//433 94//434 127//435 93//436 
f 22//437 95//438 127//439 94//440 
f 20//441 42//442 128//443 83//444 
f 25//445 96//446 128//447 42//448 
f 24//449 97//450 128//451 96//452 
f 19//453 83//454 128//455 97//456 
f 34//457 88//458 129//459 91//460 
f 37//461 98//462 129//463 88//464 
f 30//465 89//466 129//467 98//468 
f 18//469 91//470 129//471 89//472 
f 39//473 60//474 130//475 86//476 
f 32//477 99//478 130//479 60//480 
#end 120 faces
