# XSI Wavefront OBJ Export v3.0
# File Created: Sat Apr 06 15:30:47 2013
# XSI Version: 6.0.2006.1218
o cockpit
# Hierarchy (from self to top father)
g cockpit

#begin 24 vertices
v -0.149636 0.803861 0.071002
v 0.119301 0.530485 -2.447538
v -0.419138 0.803861 -0.016707
v -0.493040 0.591969 -0.599953
v -0.493040 0.522187 -1.292409
v -0.238601 0.530485 -2.379334
v -0.209569 1.010767 -0.016707
v -0.302807 1.347586 -0.464373
v -0.302807 1.347586 -1.341661
v -0.119301 0.737391 -2.379334
v 0.209569 1.010767 -0.016707
v 0.302807 1.347586 -0.464373
v 0.302807 1.347586 -1.341661
v 0.119301 0.737391 -2.379334
v 0.419138 0.803861 -0.016707
v 0.493040 0.591969 -0.599953
v 0.493040 0.522187 -1.292409
v 0.238601 0.530485 -2.379334
v 0.149636 0.803861 0.071002
v 0.104785 0.907314 0.051497
v -0.104785 0.907314 0.051497
v -0.119301 0.530485 -2.447538
v -0.059650 0.633938 -2.447538
v 0.059650 0.633938 -2.447538
#end 24 vertices

#begin 68 normals
vn -0.351058 0.580364 0.734803
vn -0.687875 0.370641 0.624062
vn -0.149645 0.245461 0.957787
vn -0.687875 0.370641 0.624062
vn -0.351058 0.580364 0.734803
vn -0.950801 0.296106 0.091094
vn -0.950801 0.296106 0.091094
vn -0.950801 0.296106 0.091094
vn -0.950801 0.296106 0.091094
vn -0.957622 0.252001 -0.139487
vn -0.957622 0.252001 -0.139487
vn -0.957622 0.252001 -0.139487
vn -0.957622 0.252001 -0.139487
vn -0.409554 0.569665 -0.712564
vn -0.753152 0.289861 -0.590545
vn -0.753152 0.289861 -0.590545
vn -0.409554 0.569665 -0.712564
vn 0.249101 0.143630 -0.957768
vn 0.351058 0.580364 0.734803
vn -0.351058 0.580364 0.734803
vn -0.100795 0.353207 0.930100
vn -0.351058 0.580364 0.734803
vn 0.351058 0.580364 0.734803
vn -0.000000 0.948442 0.316952
vn -0.000000 0.948442 0.316952
vn -0.000000 0.948442 0.316952
vn -0.000000 0.948442 0.316952
vn -0.000000 0.964885 -0.262672
vn -0.000000 0.964885 -0.262672
vn -0.000000 0.964885 -0.262672
vn -0.000000 0.964885 -0.262672
vn 0.409554 0.569665 -0.712564
vn -0.409554 0.569665 -0.712564
vn -0.409554 0.569665 -0.712564
vn 0.409554 0.569665 -0.712564
vn 0.168328 0.291229 -0.941728
vn 0.687875 0.370641 0.624062
vn 0.351058 0.580364 0.734803
vn 0.100795 0.353207 0.930100
vn 0.351058 0.580364 0.734803
vn 0.687875 0.370641 0.624062
vn 0.950801 0.296106 0.091094
vn 0.950801 0.296106 0.091094
vn 0.950801 0.296106 0.091094
vn 0.950801 0.296106 0.091094
vn 0.957622 0.252001 -0.139487
vn 0.957622 0.252001 -0.139487
vn 0.957622 0.252001 -0.139487
vn 0.957622 0.252001 -0.139487
vn 0.753152 0.289861 -0.590545
vn 0.409554 0.569665 -0.712564
vn 0.409554 0.569665 -0.712564
vn 0.753152 0.289861 -0.590545
vn -0.168328 0.291229 -0.941728
vn 0.149645 0.245461 0.957787
vn 0.100795 0.353207 0.930100
vn 0.100795 0.353207 0.930100
vn -0.100795 0.353207 0.930100
vn -0.100795 0.353207 0.930100
vn -0.149645 0.245461 0.957787
vn 0.149645 0.245461 0.957787
vn -0.249101 0.143630 -0.957768
vn -0.168328 0.291229 -0.941728
vn -0.168328 0.291229 -0.941728
vn 0.168328 0.291229 -0.941728
vn 0.168328 0.291229 -0.941728
vn 0.249101 0.143630 -0.957768
vn -0.249101 0.143630 -0.957768
#end 68 vertex normals

#begin 17 faces
f 7//1 3//2 1//60 21//58 
f 3//4 7//5 8//6 4//7 
f 4//8 8//9 9//10 5//11 
f 5//12 9//13 10//14 6//15 
f 6//16 10//17 23//63 22//62 
f 11//19 7//20 21//59 20//56 
f 7//22 11//23 12//24 8//25 
f 8//26 12//27 13//28 9//29 
f 9//30 13//31 14//32 10//33 
f 10//34 14//35 24//65 23//64 
f 15//37 11//38 20//57 19//55 
f 11//40 15//41 16//42 12//43 
f 12//44 16//45 17//46 13//47 
f 13//48 17//49 18//50 14//51 
f 14//52 18//53 2//67 24//66 
f 19//61 20//39 21//21 1//3 
f 22//68 23//54 24//36 2//18 
#end 17 faces
