# XSI Wavefront OBJ Export v3.0
# File Created: Sat Apr 06 15:30:47 2013
# XSI Version: 6.0.2006.1218
o nose
# Hierarchy (from self to top father)
g nose

#begin 32 vertices
v -0.314876 0.631712 5.447312
v -0.445302 0.316836 5.447312
v 0.006652 0.316836 5.881253
v -0.314876 0.001960 5.447312
v -0.000000 -0.128466 5.447312
v 0.000000 0.762138 5.447312
v 0.314876 0.001960 5.447312
v 0.445302 0.316836 5.447312
v 0.314876 0.631712 5.447312
v -0.390857 0.707693 5.004735
v -0.552755 0.316836 5.004735
v -0.390857 -0.074021 5.004735
v -0.000000 -0.235919 5.004735
v 0.390857 -0.074021 5.004735
v 0.390857 0.707693 5.004735
v 0.000000 0.869591 5.004735
v 0.552755 0.316836 5.004735
v -0.302644 0.316836 5.712128
v -0.214002 0.530838 5.712128
v -0.214002 0.102835 5.712128
v -0.000000 0.014192 5.712128
v 0.000000 0.619481 5.712128
v 0.214002 0.102835 5.712128
v 0.302644 0.316836 5.712128
v 0.214002 0.530838 5.712128
v -0.004704 0.321540 5.881253
v 0.000000 0.323489 5.881253
v 0.004704 0.321540 5.881253
v -0.006652 0.316836 5.881253
v -0.004704 0.312132 5.881253
v 0.000000 0.310184 5.881253
v 0.004704 0.312132 5.881253
#end 32 vertices

#begin 96 normals
vn -0.660027 0.660027 0.358789
vn -0.933419 0.000000 0.358789
vn 0.350802 0.350802 0.868260
vn -0.933419 0.000000 0.358789
vn -0.660027 -0.660027 0.358789
vn 0.496109 0.000000 0.868260
vn -0.660027 -0.660027 0.358789
vn 0.000000 -0.933419 0.358789
vn 0.000000 0.496109 0.868260
vn 0.000000 0.933419 0.358789
vn -0.660027 0.660027 0.358789
vn 0.350802 0.350802 0.868260
vn 0.000000 -0.933419 0.358789
vn 0.660027 -0.660027 0.358789
vn 0.496109 0.000000 0.868260
vn 0.660027 -0.660027 0.358789
vn 0.933419 0.000000 0.358789
vn 0.350802 -0.350802 0.868260
vn 0.660027 0.660027 0.358789
vn 0.000000 0.933419 0.358789
vn 0.350802 -0.350802 0.868260
vn 0.933419 0.000000 0.358789
vn 0.660027 0.660027 0.358789
vn 0.000000 -0.496109 0.868260
vn -0.687144 0.687144 0.235936
vn -0.971769 0.000000 0.235936
vn -0.933419 0.000000 0.358789
vn -0.660027 0.660027 0.358789
vn -0.971769 0.000000 0.235936
vn -0.687144 -0.687144 0.235936
vn -0.660027 -0.660027 0.358789
vn -0.933419 0.000000 0.358789
vn -0.687144 -0.687144 0.235936
vn 0.000000 -0.971769 0.235936
vn 0.000000 -0.933419 0.358789
vn -0.660027 -0.660027 0.358789
vn 0.000000 -0.971769 0.235936
vn 0.687144 -0.687144 0.235936
vn 0.660027 -0.660027 0.358789
vn 0.000000 -0.933419 0.358789
vn 0.687144 0.687144 0.235936
vn 0.000000 0.971769 0.235936
vn 0.000000 0.933419 0.358789
vn 0.660027 0.660027 0.358789
vn 0.000000 0.971769 0.235936
vn -0.687144 0.687144 0.235936
vn -0.660027 0.660027 0.358789
vn 0.000000 0.933419 0.358789
vn 0.971769 0.000000 0.235936
vn 0.687144 0.687144 0.235936
vn 0.660027 0.660027 0.358789
vn 0.933419 0.000000 0.358789
vn 0.687144 -0.687144 0.235936
vn 0.971769 0.000000 0.235936
vn 0.933419 0.000000 0.358789
vn 0.660027 -0.660027 0.358789
vn -0.711700 0.000000 0.702483
vn -0.711700 0.000000 0.702483
vn -0.503248 0.503248 0.702483
vn -0.503248 0.503248 0.702483
vn -0.503248 -0.503248 0.702483
vn -0.503248 -0.503248 0.702483
vn 0.000000 -0.711700 0.702483
vn 0.000000 -0.711700 0.702483
vn 0.000000 0.711700 0.702483
vn 0.000000 0.711700 0.702483
vn 0.503248 -0.503248 0.702483
vn 0.503248 -0.503248 0.702483
vn 0.711700 0.000000 0.702483
vn 0.711700 0.000000 0.702483
vn 0.503248 0.503248 0.702483
vn 0.503248 0.503248 0.702483
vn -0.711700 0.000000 0.702483
vn -0.503248 0.503248 0.702483
vn -0.503248 -0.503248 0.702483
vn -0.711700 0.000000 0.702483
vn 0.000000 -0.711700 0.702483
vn -0.503248 -0.503248 0.702483
vn -0.503248 0.503248 0.702483
vn 0.000000 0.711700 0.702483
vn 0.503248 -0.503248 0.702483
vn 0.000000 -0.711700 0.702483
vn 0.711700 0.000000 0.702483
vn 0.503248 -0.503248 0.702483
vn 0.000000 0.711700 0.702483
vn 0.503248 0.503248 0.702483
vn 0.503248 0.503248 0.702483
vn 0.711700 0.000000 0.702483
vn -0.350802 0.350802 0.868260
vn 0.000000 0.496109 0.868260
vn 0.000000 -0.496109 0.868260
vn -0.350802 -0.350802 0.868260
vn -0.350802 -0.350802 0.868260
vn -0.496109 0.000000 0.868260
vn -0.496109 0.000000 0.868260
vn -0.350802 0.350802 0.868260
#end 96 vertex normals

#begin 24 faces
f 1//1 2//2 18//57 19//59 
f 2//4 4//5 20//61 18//58 
f 4//7 5//8 21//63 20//62 
f 6//10 1//11 19//60 22//65 
f 5//13 7//14 23//67 21//64 
f 7//16 8//17 24//69 23//68 
f 9//19 6//20 22//66 25//71 
f 8//22 9//23 25//72 24//70 
f 10//25 11//26 2//27 1//28 
f 11//29 12//30 4//31 2//32 
f 12//33 13//34 5//35 4//36 
f 13//37 14//38 7//39 5//40 
f 15//41 16//42 6//43 9//44 
f 16//45 10//46 1//47 6//48 
f 17//49 15//50 9//51 8//52 
f 14//53 17//54 8//55 7//56 
f 24//88 25//87 28//3 3//6 
f 25//86 22//85 27//9 28//12 
f 23//84 24//83 3//15 32//18 
f 21//82 23//81 32//21 31//24 
f 22//80 19//79 26//89 27//90 
f 20//78 21//77 31//91 30//92 
f 18//76 20//75 30//93 29//94 
f 19//74 18//73 29//95 26//96 
#end 24 faces
