# XSI Wavefront OBJ Export v3.0
# File Created: Sat Apr 06 15:30:47 2013
# XSI Version: 6.0.2006.1218
o duct
# Hierarchy (from self to top father)
g duct

#begin 56 vertices
v -0.318032 0.707006 4.967697
v 0.318032 0.707006 4.967697
v -0.500228 0.707107 4.183274
v -0.712322 -0.000000 1.764986
v -0.712322 0.000000 2.514188
v -0.712322 0.000000 4.183274
v -0.565674 0.316836 4.967697
v -0.594704 0.707107 2.514188
v -0.707107 -0.707107 1.798694
v -0.844339 -0.707107 2.514188
v -0.844339 -0.707107 4.183274
v -0.399992 -0.083156 4.967697
v -0.707107 0.707107 1.798694
v -0.000000 -1.000000 1.798694
v -0.000000 -1.000000 2.514188
v -0.000000 -1.000000 4.183274
v -0.000000 -0.248838 4.967697
v 0.000000 0.882511 4.967697
v 0.707107 -0.707107 1.798694
v 0.844339 -0.707107 2.514188
v 0.844339 -0.707107 4.183274
v 0.399992 -0.083156 4.967697
v 0.000000 1.000000 4.183274
v 0.712322 -0.000000 1.764986
v 0.712322 -0.000000 2.514188
v 0.712322 0.000000 4.183274
v 0.565674 0.316836 4.967697
v 0.000000 1.000000 2.514188
v 0.707107 0.707107 1.798694
v 0.594704 0.707107 2.514188
v 0.500228 0.707107 4.183274
v 0.399992 0.707120 4.967697
v 0.000000 1.000000 1.798694
v -0.399992 0.707120 4.967697
v -0.449766 0.316836 4.967697
v -0.318032 -0.001196 4.967697
v -0.000000 -0.132929 4.967697
v 0.000000 0.707190 4.967697
v 0.318032 -0.001196 4.967697
v 0.449766 0.316836 4.967697
v -0.553549 -0.497042 4.623446
v -0.638998 0.158418 4.623445
v -0.465611 0.707156 4.623446
v -0.000000 -0.726330 4.623446
v 0.553549 -0.497042 4.623446
v 0.638998 0.158418 4.623445
v 0.000000 0.971234 4.623446
v 0.465611 0.707156 4.623446
v -0.707107 -0.707107 2.230435
v -0.712322 0.000000 2.213582
v -0.000000 -1.000000 2.230435
v -0.650905 0.707107 2.230435
v 0.707107 -0.707107 2.230435
v 0.712322 -0.000000 2.213582
v 0.650905 0.707107 2.230435
v 0.000000 1.000000 2.230435
#end 56 vertices

#begin 192 normals
vn 0.000000 -0.000000 1.000000
vn 0.000000 -0.000000 1.000000
vn 0.000000 -0.000000 1.000000
vn -0.742360 0.654450 0.143513
vn -0.951442 0.069532 0.299873
vn -0.975353 0.186762 0.117501
vn -0.787009 0.615541 0.041550
vn -0.999318 0.018677 0.031851
vn -0.999973 -0.007376 0.000000
vn -0.984181 0.134944 -0.114797
vn -0.987391 0.156060 -0.026552
vn -0.987391 0.156060 -0.026552
vn -0.984181 0.134944 -0.114797
vn -0.975764 0.109895 0.189227
vn -0.975353 0.186762 0.117501
vn -0.975353 0.186762 0.117501
vn -0.975764 0.109895 0.189227
vn -0.313421 -0.220425 0.923677
vn -0.951442 0.069532 0.299873
vn 0.000000 -0.000000 1.000000
vn -0.000000 -0.000000 1.000000
vn 0.000000 -0.000000 1.000000
vn -0.787009 0.615541 0.041550
vn -0.975353 0.186762 0.117501
vn -0.987391 0.156060 -0.026552
vn -0.799937 0.598013 0.049821
vn -0.799937 0.598013 0.049821
vn -0.987391 0.156060 -0.026552
vn -0.999318 0.018677 0.031851
vn -0.382683 -0.923880 0.000000
vn 0.000000 -1.000000 0.000000
vn 0.000000 -0.998973 -0.045298
vn -0.340182 -0.939394 -0.042597
vn -0.340182 -0.939394 -0.042597
vn 0.000000 -0.998973 -0.045298
vn 0.000000 -0.955980 0.293432
vn -0.324653 -0.904197 0.277538
vn -0.324653 -0.904197 0.277538
vn 0.000000 -0.955980 0.293432
vn 0.000000 -0.302890 0.953025
vn -0.313421 -0.220425 0.923677
vn 0.000000 -0.000000 1.000000
vn -0.000000 -0.000000 1.000000
vn 0.000000 0.000000 1.000000
vn -0.996971 0.044698 0.063648
vn -0.000000 -0.000000 1.000000
vn -0.000000 -0.000000 1.000000
vn 0.000000 0.000000 1.000000
vn 0.000000 0.984643 0.174579
vn -0.742360 0.654450 0.143513
vn -0.787009 0.615541 0.041550
vn 0.000000 -1.000000 0.000000
vn 0.382683 -0.923880 0.000000
vn 0.340182 -0.939394 -0.042597
vn 0.000000 -0.998973 -0.045298
vn 0.000000 -0.998973 -0.045298
vn 0.340182 -0.939394 -0.042597
vn 0.324653 -0.904197 0.277538
vn 0.000000 -0.955980 0.293432
vn 0.000000 -0.955980 0.293432
vn 0.324653 -0.904197 0.277538
vn 0.313421 -0.220425 0.923677
vn 0.000000 -0.302890 0.953025
vn 0.000000 0.000000 1.000000
vn 0.000000 0.000000 1.000000
vn 0.000000 0.000000 1.000000
vn -0.000000 0.999387 0.035009
vn -0.000000 0.999387 0.035009
vn -0.787009 0.615541 0.041550
vn -0.799937 0.598013 0.049821
vn 0.000000 0.999518 0.031040
vn 0.000000 0.999518 0.031040
vn -0.799937 0.598013 0.049821
vn 0.999973 -0.007376 0.000000
vn 0.999318 0.018677 0.031851
vn 0.987391 0.156060 -0.026552
vn 0.984181 0.134944 -0.114797
vn 0.984181 0.134944 -0.114797
vn 0.987391 0.156060 -0.026552
vn 0.975353 0.186762 0.117501
vn 0.975764 0.109895 0.189227
vn 0.975764 0.109895 0.189227
vn 0.975353 0.186762 0.117501
vn 0.951442 0.069532 0.299873
vn 0.313421 -0.220425 0.923677
vn 0.313421 -0.220425 0.923677
vn 0.000000 0.000000 1.000000
vn 0.000000 0.000000 1.000000
vn -0.395947 0.917912 0.025771
vn 0.000000 0.999606 0.028065
vn 0.313421 -0.220425 0.923677
vn 0.000000 -0.302890 0.953025
vn 0.000000 0.000000 1.000000
vn 0.742360 0.654450 0.143513
vn 0.000000 0.984643 0.174579
vn 0.999318 0.018677 0.031851
vn 0.996971 0.044698 0.063648
vn 0.799937 0.598013 0.049821
vn 0.987391 0.156060 -0.026552
vn 0.987391 0.156060 -0.026552
vn 0.799937 0.598013 0.049821
vn 0.787009 0.615541 0.041550
vn 0.975353 0.186762 0.117501
vn 0.975353 0.186762 0.117501
vn 0.787009 0.615541 0.041550
vn 0.742360 0.654450 0.143513
vn 0.951442 0.069532 0.299873
vn 0.000000 0.000000 1.000000
vn 0.000000 -0.302890 0.953025
vn -0.313421 -0.220425 0.923677
vn -0.000000 0.999387 0.035009
vn 0.787009 0.615541 0.041550
vn 0.787009 0.615541 0.041550
vn -0.000000 0.999387 0.035009
vn 0.000000 0.999518 0.031040
vn 0.799937 0.598013 0.049821
vn 0.799937 0.598013 0.049821
vn 0.395947 0.917912 0.025771
vn 0.000000 0.999606 0.028065
vn 0.000000 0.999518 0.031040
vn 0.000000 -0.000000 1.000000
vn 0.000000 0.000000 1.000000
vn 0.000000 0.000000 1.000000
vn 0.000000 -0.000000 1.000000
vn 0.000000 0.000000 1.000000
vn -0.313421 -0.220425 0.923677
vn 0.000000 0.000000 1.000000
vn 0.000000 0.000000 1.000000
vn -0.660863 -0.436283 0.610670
vn -0.660863 -0.436283 0.610670
vn -0.958079 0.118668 0.260772
vn -0.958079 0.118668 0.260772
vn -0.762365 0.639060 0.101990
vn -0.762365 0.639060 0.101990
vn 0.000000 -0.717377 0.696685
vn 0.000000 -0.717377 0.696685
vn 0.660863 -0.436283 0.610670
vn 0.660863 -0.436283 0.610670
vn 0.958079 0.118668 0.260772
vn 0.958079 0.118668 0.260772
vn 0.000000 0.993243 0.116049
vn 0.000000 0.993243 0.116049
vn 0.762365 0.639060 0.101990
vn 0.762365 0.639060 0.101990
vn -0.958079 0.118668 0.260772
vn -0.762365 0.639060 0.101990
vn -0.660863 -0.436283 0.610670
vn -0.958079 0.118668 0.260772
vn 0.000000 -0.717377 0.696685
vn -0.660863 -0.436283 0.610670
vn -0.762365 0.639060 0.101990
vn 0.000000 0.993243 0.116049
vn 0.660863 -0.436283 0.610670
vn 0.000000 -0.717377 0.696685
vn 0.958079 0.118668 0.260772
vn 0.660863 -0.436283 0.610670
vn 0.000000 0.993243 0.116049
vn 0.762365 0.639060 0.101990
vn 0.762365 0.639060 0.101990
vn 0.958079 0.118668 0.260772
vn -0.992635 0.038741 -0.114786
vn -0.367698 -0.928969 -0.042598
vn -0.997927 0.061948 -0.017453
vn -0.997927 0.061948 -0.017453
vn 0.000000 -0.998950 -0.045807
vn 0.000000 -0.998950 -0.045807
vn -0.813827 0.577381 0.065703
vn -0.813827 0.577381 0.065703
vn 0.367698 -0.928969 -0.042598
vn 0.992635 0.038741 -0.114786
vn 0.997927 0.061948 -0.017453
vn 0.997927 0.061948 -0.017453
vn 0.813827 0.577381 0.065703
vn 0.813827 0.577381 0.065703
vn 0.000000 0.999307 0.037229
vn 0.000000 0.999307 0.037229
vn -0.992635 0.038741 -0.114786
vn -0.997927 0.061948 -0.017453
vn -0.997927 0.061948 -0.017453
vn -0.813827 0.577381 0.065703
vn 0.000000 -0.998950 -0.045807
vn -0.367698 -0.928969 -0.042598
vn 0.367698 -0.928969 -0.042598
vn 0.000000 -0.998950 -0.045807
vn -0.813827 0.577381 0.065703
vn 0.000000 0.999307 0.037229
vn 0.997927 0.061948 -0.017453
vn 0.992635 0.038741 -0.114786
vn 0.813827 0.577381 0.065703
vn 0.997927 0.061948 -0.017453
vn 0.000000 0.999307 0.037229
vn 0.813827 0.577381 0.065703
#end 192 vertex normals

#begin 48 faces
f 18//20 34//3 1//2 38//1 
f 3//7 6//6 42//132 43//134 
f 4//8 9//9 49//161 50//163 
f 5//12 10//13 11//14 6//15 
f 6//16 11//17 41//129 42//131 
f 32//43 18//42 38//22 2//21 
f 8//26 5//25 6//24 3//23 
f 13//45 4//29 50//164 52//168 
f 9//30 14//31 51//165 49//162 
f 10//34 15//35 16//36 11//37 
f 11//38 16//39 44//135 41//130 
f 27//48 32//47 2//46 40//44 
f 22//86 27//66 40//65 39//64 
f 23//67 3//51 43//133 47//142 
f 14//52 19//53 53//169 51//166 
f 15//56 20//57 21//58 16//59 
f 16//60 21//61 45//137 44//136 
f 17//92 22//91 39//88 37//87 
f 28//71 8//70 3//69 23//68 
f 33//90 13//89 52//167 56//176 
f 19//74 24//75 54//171 53//170 
f 20//78 25//79 26//80 21//81 
f 21//82 26//83 46//139 45//138 
f 12//110 17//109 37//108 36//93 
f 7//125 12//126 36//127 35//128 
f 31//112 23//111 47//141 48//144 
f 24//96 29//97 55//173 54//172 
f 25//100 30//101 31//102 26//103 
f 26//104 31//105 48//143 46//140 
f 34//121 7//122 35//123 1//124 
f 30//116 28//115 23//114 31//113 
f 29//118 33//119 56//175 55//174 
f 7//5 34//4 43//146 42//145 
f 12//18 7//19 42//148 41//147 
f 17//40 12//41 41//150 44//149 
f 34//50 18//49 47//152 43//151 
f 22//62 17//63 44//154 45//153 
f 27//84 22//85 45//156 46//155 
f 18//95 32//94 48//158 47//157 
f 32//106 27//107 46//160 48//159 
f 10//10 5//11 50//178 49//177 
f 5//28 8//27 52//180 50//179 
f 15//32 10//33 49//182 51//181 
f 20//54 15//55 51//184 53//183 
f 8//73 28//72 56//186 52//185 
f 25//76 20//77 53//188 54//187 
f 30//98 25//99 54//190 55//189 
f 28//120 30//117 55//192 56//191 
#end 48 faces
