# XSI Wavefront OBJ Export v3.0
# File Created: Sat Apr 06 15:30:47 2013
# XSI Version: 6.0.2006.1218
o hull2
# Hierarchy (from self to top father)
g hull2

#begin 40 vertices
v -0.008603 0.913424 -7.133726
v -0.061473 0.851951 -7.070557
v -0.352528 0.503575 -4.802256
v -0.574305 0.183484 -2.276835
v -0.709743 0.000000 -0.213568
v -0.086936 0.913424 -7.070557
v -0.707107 0.707107 -0.213568
v -0.353553 0.150021 -4.802256
v -0.575975 -0.392491 -2.276835
v -0.707107 -0.707107 -0.213568
v -0.000000 0.826488 -7.070557
v -0.575975 0.759460 -2.276835
v -0.000000 0.003575 -4.802256
v -0.000000 -0.631068 -2.276835
v -0.000000 -1.000000 -0.213568
v 0.061473 0.851951 -7.070557
v -0.353553 0.857128 -4.802256
v 0.353553 0.150021 -4.802256
v 0.575975 -0.392491 -2.276835
v 0.707107 -0.707107 -0.213568
v -0.061473 0.974897 -7.070557
v 0.086936 0.913424 -7.070557
v 0.352528 0.503575 -4.802256
v 0.574305 0.183484 -2.276835
v 0.709743 -0.000000 -0.213568
v 0.000000 0.999913 -7.070557
v 0.000000 1.000000 -0.213568
v 0.353553 0.857128 -4.802256
v 0.575975 0.759460 -2.276835
v 0.707107 0.707107 -0.213568
v 0.061473 0.974897 -7.070557
v 0.000000 0.988228 -2.276835
v 0.000000 0.999925 -4.802256
v -0.006083 0.919507 -7.133726
v 0.000000 0.922027 -7.133726
v 0.006083 0.919507 -7.133726
v 0.008603 0.913424 -7.133726
v 0.006083 0.907340 -7.133726
v -0.000000 0.904821 -7.133726
v -0.006083 0.907340 -7.133726
#end 40 vertices

#begin 128 normals
vn -0.993371 -0.027695 -0.111569
vn -0.994303 0.000039 -0.106593
vn -0.627740 0.000000 -0.778423
vn -0.994303 0.000039 -0.106593
vn -0.993371 -0.027695 -0.111569
vn -0.997119 0.001069 -0.075841
vn -0.997109 0.000000 -0.075990
vn -0.997109 0.000000 -0.075990
vn -0.997119 0.001069 -0.075841
vn -0.997914 -0.000751 -0.064555
vn -0.997918 0.000000 -0.064488
vn -0.639658 -0.518834 -0.567141
vn -0.876210 0.000042 -0.481929
vn 0.000000 -0.810748 -0.585396
vn -0.639658 -0.518834 -0.567141
vn -0.639658 -0.518834 -0.567141
vn -0.639658 -0.518834 -0.567141
vn -0.876210 0.000042 -0.481929
vn -0.670781 0.557435 -0.489203
vn -0.997922 0.000751 -0.064422
vn -0.997918 0.000000 -0.064488
vn -0.997109 0.000000 -0.075990
vn -0.000000 -0.956154 -0.292863
vn -0.368224 -0.888972 -0.272286
vn -0.627740 0.000000 -0.778423
vn -0.368224 -0.888972 -0.272286
vn -0.000000 -0.956154 -0.292863
vn 0.000000 -0.977695 -0.210032
vn -0.375362 -0.906204 -0.194674
vn -0.375362 -0.906204 -0.194674
vn 0.000000 -0.977695 -0.210032
vn 0.000000 -0.984387 -0.176018
vn -0.377566 -0.911525 -0.162989
vn -0.876210 0.000042 -0.481929
vn -0.876210 0.000042 -0.481929
vn 0.639658 -0.518834 -0.567141
vn 0.000000 -0.810748 -0.585396
vn -0.997097 -0.001069 -0.076138
vn -0.997097 -0.001069 -0.076138
vn -0.997109 0.000000 -0.075990
vn -0.994303 0.000039 -0.106593
vn -0.994445 0.027766 -0.101534
vn -0.443879 -0.443879 -0.778423
vn -0.994445 0.027766 -0.101534
vn 0.368224 -0.888972 -0.272286
vn -0.000000 -0.956154 -0.292863
vn -0.443879 -0.443879 -0.778423
vn -0.000000 -0.956154 -0.292863
vn 0.368224 -0.888972 -0.272286
vn 0.375362 -0.906204 -0.194674
vn 0.000000 -0.977695 -0.210032
vn 0.000000 -0.977695 -0.210032
vn 0.375362 -0.906204 -0.194674
vn 0.377566 -0.911525 -0.162989
vn 0.000000 -0.984387 -0.176018
vn 0.000000 -0.810748 -0.585396
vn 0.000000 -0.810748 -0.585396
vn 0.876210 0.000042 -0.481929
vn 0.639658 -0.518834 -0.567141
vn -0.994303 0.000039 -0.106593
vn 0.639658 -0.518834 -0.567141
vn 0.639658 -0.518834 -0.567141
vn -0.670781 0.557435 -0.489203
vn 0.000000 0.898138 -0.439713
vn 0.000000 0.999995 -0.003086
vn -0.376629 0.926360 -0.002858
vn 0.994303 0.000039 -0.106593
vn 0.993371 -0.027695 -0.111569
vn 0.000000 -0.627740 -0.778423
vn 0.993371 -0.027695 -0.111569
vn 0.994303 0.000039 -0.106593
vn 0.997109 0.000000 -0.075990
vn 0.997119 0.001069 -0.075841
vn 0.997119 0.001069 -0.075841
vn 0.997109 0.000000 -0.075990
vn 0.997918 0.000000 -0.064488
vn 0.997914 -0.000751 -0.064555
vn -0.670781 0.557435 -0.489203
vn -0.670781 0.557435 -0.489203
vn 0.670781 0.557435 -0.489203
vn 0.876210 0.000042 -0.481929
vn -0.373906 0.927466 0.000451
vn -0.000000 1.000000 0.000486
vn -0.000000 1.000000 0.000486
vn -0.373906 0.927466 0.000451
vn -0.373019 0.927822 0.001845
vn 0.000000 0.999998 0.001989
vn 0.000000 -0.627740 -0.778423
vn 0.994445 0.027766 -0.101534
vn 0.994303 0.000039 -0.106593
vn 0.443879 -0.443879 -0.778423
vn 0.994303 0.000039 -0.106593
vn 0.994445 0.027766 -0.101534
vn 0.997097 -0.001069 -0.076138
vn 0.997109 0.000000 -0.075990
vn 0.997109 0.000000 -0.075990
vn 0.997097 -0.001069 -0.076138
vn 0.997922 0.000751 -0.064422
vn 0.997918 0.000000 -0.064488
vn 0.876210 0.000042 -0.481929
vn 0.876210 0.000042 -0.481929
vn 0.000000 0.898138 -0.439713
vn 0.670781 0.557435 -0.489203
vn 0.000000 0.999998 0.001989
vn -0.373019 0.927822 0.001845
vn 0.000000 0.898138 -0.439713
vn 0.000000 0.898138 -0.439713
vn 0.670781 0.557435 -0.489203
vn 0.670781 0.557435 -0.489203
vn 0.376629 0.926360 -0.002858
vn 0.000000 0.999998 0.001989
vn 0.373019 0.927822 0.001845
vn 0.443879 -0.443879 -0.778423
vn 0.373019 0.927822 0.001845
vn 0.000000 0.999998 0.001989
vn -0.000000 1.000000 0.000486
vn 0.373906 0.927466 0.000451
vn 0.373906 0.927466 0.000451
vn -0.000000 1.000000 0.000486
vn 0.000000 0.999995 -0.003086
vn -0.442540 0.445356 -0.778342
vn -0.442540 0.445356 -0.778342
vn 0.000000 0.629719 -0.776823
vn 0.000000 0.629719 -0.776823
vn 0.442540 0.445356 -0.778342
vn 0.442540 0.445356 -0.778342
vn 0.627740 0.000000 -0.778423
vn 0.627740 0.000000 -0.778423
#end 128 vertex normals

#begin 32 faces
f 8//1 3//2 6//35 2//17 
f 3//4 8//5 9//6 4//7 
f 4//8 9//9 10//10 5//11 
f 40//47 2//12 6//13 1//25 
f 39//88 11//14 2//15 40//43 
f 12//38 4//22 5//21 7//20 
f 13//23 8//24 2//16 11//57 
f 8//26 13//27 14//28 9//29 
f 9//30 14//31 15//32 10//33 
f 1//3 6//18 21//19 34//122 
f 17//42 3//41 4//40 12//39 
f 3//60 17//44 21//78 6//34 
f 18//45 13//46 11//56 16//62 
f 13//48 18//49 19//50 14//51 
f 14//52 19//53 20//54 15//55 
f 38//113 16//36 11//37 39//69 
f 37//127 22//58 16//59 38//91 
f 32//83 12//82 7//66 27//65 
f 23//67 18//68 16//61 22//101 
f 18//70 23//71 24//72 19//73 
f 19//74 24//75 25//76 20//77 
f 34//121 21//63 26//64 35//124 
f 33//87 17//86 12//85 32//84 
f 17//105 33//104 26//106 21//79 
f 28//89 23//90 22//100 31//109 
f 23//92 28//93 29//94 24//95 
f 24//96 29//97 30//98 25//99 
f 36//125 31//80 22//81 37//128 
f 35//123 26//102 31//103 36//126 
f 29//118 32//119 27//120 30//110 
f 33//111 28//112 31//108 26//107 
f 28//114 33//115 32//116 29//117 
#end 32 faces
