# XSI Wavefront OBJ Export v3.0
# File Created: Sat Apr 06 15:30:47 2013
# XSI Version: 6.0.2006.1218
o rudder
# Hierarchy (from self to top father)
g rudder

#begin 44 vertices
v 0.003244 2.000000 -6.928106
v 0.003244 2.000000 -6.072389
v -0.063970 2.000000 -6.331525
v -0.002895 2.000000 -6.946321
v -0.264028 0.000000 -5.641138
v -0.079292 2.000000 -6.072389
v 0.070459 2.000000 -6.331525
v -0.214975 0.000000 -6.028147
v 0.019871 0.000000 -6.946321
v -0.308042 0.000000 -5.378209
v -0.055118 2.000000 -5.896336
v 0.215404 0.000000 -6.028147
v 0.044513 2.000000 -6.072389
v 0.085781 2.000000 -6.072389
v 0.000215 0.568830 -3.123700
v 0.003244 2.000000 -5.823412
v 0.264457 0.000000 -5.641138
v 0.003244 2.000000 -6.331523
v 0.009384 2.000000 -6.946321
v 0.308471 0.000000 -5.378209
v 0.061606 2.000000 -5.896336
v -0.019442 0.000000 -6.946321
v -0.008955 0.517639 -6.946321
v 0.009384 0.517639 -6.946321
v 0.123479 0.517639 -5.641138
v -0.086947 0.517639 -5.053415
v -0.123050 0.517639 -5.641138
v 0.100597 0.517639 -6.028147
v 0.000215 0.517639 -4.944506
v -0.100168 0.517639 -6.028147
v 0.087376 0.517639 -5.053415
v 0.198552 0.568830 -3.123776
v -0.424961 0.051191 -3.123776
v -0.198123 0.568830 -3.123776
v 0.425391 0.051191 -3.123776
v -0.008955 0.727774 -6.946321
v -0.123050 0.727774 -5.641138
v 0.009384 0.727774 -6.946321
v 0.123479 0.727774 -5.641138
v -0.086947 0.727774 -5.378209
v 0.100597 0.727774 -6.028147
v 0.000215 0.727774 -5.269300
v -0.100168 0.727774 -6.028147
v 0.087376 0.727774 -5.378209
#end 44 vertices

#begin 130 normals
vn 0.000000 1.000000 0.000000
vn 0.000000 1.000000 0.000000
vn 0.000000 1.000000 0.000000
vn 0.000000 1.000000 -0.000000
vn 0.000000 1.000000 0.000000
vn 0.000000 1.000000 0.000000
vn -0.000000 1.000000 0.000000
vn -0.995091 0.004739 -0.098854
vn 0.998348 0.042640 0.038519
vn 0.906384 0.174960 0.384521
vn 0.998348 0.042640 0.038519
vn -0.956866 0.286296 -0.049413
vn -0.927280 0.372798 -0.034252
vn -0.905727 0.179112 0.384157
vn -0.998135 0.047380 0.038496
vn 0.000000 1.000000 -0.000000
vn 0.000000 1.000000 -0.000000
vn 0.000000 1.000000 0.000000
vn 0.996867 0.004787 -0.078954
vn 0.976238 0.179226 -0.121809
vn 0.956866 0.286296 -0.049413
vn 0.956866 0.286296 -0.049413
vn -0.996833 0.009535 -0.078952
vn -0.998135 0.047380 0.038496
vn -0.956866 0.286296 -0.049413
vn -0.976238 0.179226 -0.121809
vn 0.927280 0.372798 -0.034252
vn -0.981038 0.118730 -0.153189
vn -0.976238 0.179226 -0.121809
vn -0.996833 0.009535 -0.078952
vn 0.000000 1.000000 0.000000
vn 0.996867 0.004787 -0.078954
vn -0.000000 1.000000 0.000000
vn -0.927280 0.372798 -0.034252
vn -0.800691 0.590101 0.103321
vn -0.752993 0.264266 0.602631
vn -0.905727 0.179112 0.384157
vn 0.000000 1.000000 -0.000000
vn 0.000000 1.000000 -0.000000
vn 0.000000 1.000000 0.000000
vn 0.000000 1.000000 -0.000000
vn 0.000000 1.000000 -0.000000
vn 0.000000 1.000000 -0.000000
vn 0.000000 1.000000 -0.000000
vn 0.000000 1.000000 -0.000000
vn 0.000000 1.000000 -0.000000
vn 0.000000 1.000000 0.000000
vn 0.753703 0.260926 0.603199
vn 0.976238 0.179226 -0.121809
vn 0.981038 0.118730 -0.153189
vn 0.995102 0.000000 -0.098855
vn 0.906384 0.174960 0.384521
vn 0.000000 0.999636 -0.026983
vn 0.010300 0.999583 -0.026982
vn 0.000000 1.000000 0.000000
vn 0.000000 1.000000 0.000000
vn 0.000000 1.000000 0.000000
vn 0.000000 1.000000 0.000000
vn -0.990207 0.059493 -0.126295
vn 0.990207 0.059493 -0.126295
vn 0.986782 0.160991 -0.018523
vn 0.986782 0.160991 -0.018523
vn -0.800691 0.590101 0.103321
vn -0.800691 0.590101 0.103321
vn -0.986782 0.160991 -0.018523
vn -0.986782 0.160991 -0.018523
vn 0.990837 0.089905 -0.100793
vn 0.990837 0.089905 -0.100793
vn 0.000000 0.970290 0.241944
vn -0.010300 0.999583 -0.026982
vn -0.990837 0.089905 -0.100793
vn -0.990837 0.089905 -0.100793
vn 0.000000 0.999636 -0.026983
vn 0.800691 0.590101 0.103321
vn -0.990837 0.089905 -0.100793
vn -0.990207 0.059493 -0.126295
vn 0.990837 0.089905 -0.100793
vn 0.986782 0.160991 -0.018523
vn -0.800691 0.590101 0.103321
vn -0.986782 0.160991 -0.018523
vn -0.986782 0.160991 -0.018523
vn -0.990837 0.089905 -0.100793
vn 0.800691 0.590101 0.103321
vn 0.000000 0.970290 0.241944
vn 0.000000 0.970290 0.241944
vn -0.800691 0.590101 0.103321
vn 0.986782 0.160991 -0.018523
vn 0.800691 0.590101 0.103321
vn 0.990207 0.059493 -0.126295
vn 0.990837 0.089905 -0.100793
vn 0.000000 0.970290 0.241944
vn 0.800691 0.590101 0.103321
vn 0.909188 0.412092 -0.059648
vn 0.909188 0.412092 -0.059648
vn -0.909188 0.412092 -0.059648
vn -0.909188 0.412092 -0.059648
vn 0.800691 0.590101 0.103321
vn 0.927280 0.372798 -0.034252
vn -0.995099 0.002370 -0.098855
vn -0.998870 0.040044 0.025601
vn -0.998870 0.040044 0.025601
vn 0.995102 0.000000 -0.098855
vn 0.998962 0.037676 0.025612
vn 0.998962 0.037676 0.025612
vn -0.890480 0.298261 0.343636
vn -0.890480 0.298261 0.343636
vn 0.996875 0.002394 -0.078955
vn 0.996875 0.002394 -0.078955
vn -0.678432 0.494899 0.542959
vn 0.679100 0.493394 0.543493
vn -0.996867 0.004767 -0.078954
vn -0.996867 0.004767 -0.078954
vn 0.891062 0.296193 0.343915
vn 0.891062 0.296193 0.343915
vn -0.995099 0.002370 -0.098855
vn -0.996867 0.004767 -0.078954
vn 0.998962 0.037676 0.025612
vn 0.996875 0.002394 -0.078955
vn -0.998870 0.040044 0.025601
vn -0.890480 0.298261 0.343636
vn -0.996867 0.004767 -0.078954
vn -0.998870 0.040044 0.025601
vn 0.679100 0.493394 0.543493
vn 0.891062 0.296193 0.343915
vn -0.890480 0.298261 0.343636
vn -0.678432 0.494899 0.542959
vn 0.891062 0.296193 0.343915
vn 0.998962 0.037676 0.025612
vn 0.996875 0.002394 -0.078955
vn 0.995102 0.000000 -0.098855
#end 130 vertex normals

#begin 32 faces
f 6//6 2//4 18//3 3//1 
f 22//28 8//29 30//71 23//59 
f 17//21 12//20 28//67 25//62 
f 5//12 10//13 26//63 27//65 
f 11//18 16//17 2//16 6//5 
f 19//33 1//31 18//47 7//40 
f 8//26 5//25 27//66 30//72 
f 16//38 21//39 14//42 13//45 2//46 
f 29//69 26//64 34//54 15//53 
f 31//92 29//91 15//73 32//70 
f 20//27 17//22 25//61 31//74 
f 12//49 9//50 24//60 28//68 
f 2//44 13//43 14//41 7//56 18//55 
f 1//2 4//7 3//58 18//57 
f 3//30 4//8 36//99 43//111 
f 7//19 14//9 39//104 41//107 
f 11//14 6//15 37//100 40//105 
f 6//24 3//23 43//112 37//101 
f 21//52 16//48 42//110 44//113 
f 16//36 11//37 40//106 42//109 
f 14//11 21//10 44//114 39//103 
f 19//51 7//32 41//108 38//102 
f 20//98 31//97 32//94 35//93 
f 26//35 10//34 33//96 34//95 
f 23//76 30//75 43//116 36//115 
f 25//78 28//77 41//118 39//117 
f 27//80 26//79 40//120 37//119 
f 30//82 27//81 37//122 43//121 
f 29//84 31//83 44//124 42//123 
f 26//86 29//85 42//126 40//125 
f 31//88 25//87 39//128 44//127 
f 28//90 24//89 38//130 41//129 
#end 32 faces
