# XSI Wavefront OBJ Export v3.0
# File Created: Sat Apr 06 15:30:47 2013
# XSI Version: 6.0.2006.1218
o elevator
# Hierarchy (from self to top father)
g elevator

#begin 39 vertices
v -2.850824 -0.044828 -5.849753
v 0.000000 -0.015662 -7.021399
v -0.107009 -0.015662 -7.021403
v -2.850824 -0.111606 -5.849753
v -0.108027 -0.196605 -5.242745
v 0.000000 0.028301 -4.974113
v -0.000000 0.028310 -6.077210
v 0.000000 0.058612 -5.242741
v -2.116799 -0.114439 -5.322351
v -0.108088 -0.152163 -4.974117
v 0.000000 -0.044872 -4.862846
v 0.000000 -0.029731 -7.021955
v -2.116799 -0.022069 -6.878567
v -2.116799 -0.043444 -5.234913
v -0.108098 -0.044872 -4.862849
v 0.000000 -0.152163 -4.974113
v -0.107413 0.028310 -6.077213
v -2.116799 -0.114439 -6.189092
v -2.116799 0.004974 -5.322351
v -0.108090 0.028301 -4.974117
v 0.000000 -0.196605 -5.242741
v -2.116799 0.004974 -6.189092
v 0.000000 -0.152175 -6.077207
v -2.116799 0.025030 -5.533445
v -0.108028 0.058612 -5.242745
v -0.107150 -0.029731 -7.021959
v -0.107426 -0.152175 -6.077211
v -2.850824 -0.034511 -6.743938
v -2.850824 -0.030594 -6.744016
v -2.116799 -0.039094 -6.879425
v -2.850824 0.000716 -5.849753
v -2.850824 -0.012623 -6.285836
v -2.850824 -0.012623 -5.709351
v -2.850824 -0.092047 -6.285836
v -2.116799 -0.143846 -5.533445
v -2.850824 -0.092047 -5.709351
v -2.850824 -0.041978 -6.744585
v -2.850824 -0.044828 -5.651194
v -2.850824 -0.039669 -6.285862
#end 39 vertices

#begin 120 normals
vn -0.000001 0.999277 0.038022
vn -0.000011 0.940383 0.340116
vn -0.047979 -0.997646 0.048991
vn 0.000002 0.998917 -0.046521
vn 0.000001 0.999142 -0.041405
vn -0.000011 0.940383 0.340116
vn -1.000000 0.000000 0.000000
vn -0.047979 -0.997646 0.048991
vn -0.159638 -0.900566 0.404347
vn -0.045116 -0.898098 0.437475
vn -0.016077 -0.998442 0.053440
vn -0.000019 0.835518 0.549464
vn 0.000001 0.999142 -0.041405
vn -0.000001 0.999277 0.038022
vn -0.000023 -0.719854 0.694126
vn -0.000015 -0.893561 0.448943
vn -1.000000 -0.000000 0.000000
vn -1.000000 -0.000000 0.000000
vn -1.000000 0.000000 0.000000
vn 0.000003 -0.995859 -0.090914
vn -0.011974 -0.993375 -0.114289
vn 0.000004 -0.991706 -0.128529
vn -0.000015 -0.893561 0.448943
vn -0.000002 -0.998467 0.055354
vn -0.000002 -0.998467 0.055354
vn 0.000003 -0.995859 -0.090914
vn -1.000000 -0.000000 0.000000
vn -1.000000 0.000000 0.000000
vn -1.000000 0.000000 0.000000
vn -0.159638 -0.900566 0.404347
vn -0.232100 -0.739383 0.632015
vn -0.063137 -0.730696 0.679778
vn -0.045116 -0.898098 0.437475
vn -1.000000 -0.000000 0.000000
vn -1.000000 0.000000 0.000000
vn -1.000000 -0.000000 0.000000
vn -0.010391 0.999272 0.036702
vn -0.016520 -0.996597 -0.080762
vn -0.033000 0.943333 0.330203
vn -1.000000 0.000000 0.000000
vn -0.014304 0.999222 -0.036741
vn -0.003863 0.998981 -0.044976
vn -0.004624 0.999189 -0.040005
vn -0.033000 0.943333 0.330203
vn -0.048955 0.843326 0.535168
vn -0.004624 0.999189 -0.040005
vn -0.013257 0.999058 -0.041308
vn -1.000000 0.000000 0.000000
vn -1.000000 -0.000000 0.000000
vn -1.000000 0.000000 0.000000
vn -0.010391 0.999272 0.036702
vn -0.182793 0.849374 0.495126
vn -0.120298 0.944925 0.304377
vn -0.033000 0.943333 0.330203
vn -0.048955 0.843326 0.535168
vn -0.010391 0.999272 0.036702
vn -0.063137 -0.730696 0.679778
vn -0.045116 -0.898098 0.437475
vn -0.006367 -0.996111 -0.087881
vn -1.000000 0.000000 0.000000
vn -0.003960 -0.992235 -0.124311
vn -0.004624 0.999189 -0.040005
vn -0.045116 -0.898098 0.437475
vn -0.003863 0.998981 -0.044976
vn -0.016077 -0.998442 0.053440
vn -0.016077 -0.998442 0.053440
vn -0.014304 0.999222 -0.036741
vn -1.000000 0.000000 0.000000
vn -1.000000 0.000000 -0.000000
vn -1.000000 0.000000 0.000000
vn -0.004624 0.999189 -0.040005
vn -1.000000 0.000000 0.000000
vn -0.006367 -0.996111 -0.087881
vn -0.120298 0.944925 0.304377
vn -0.033812 0.998861 0.033669
vn -0.010391 0.999272 0.036702
vn -0.033000 0.943333 0.330203
vn -0.016520 -0.996597 -0.080762
vn -0.011974 -0.993375 -0.114289
vn -0.016023 -0.993969 -0.108485
vn -0.020303 -0.996849 -0.076679
vn -1.000000 -0.000000 0.000000
vn -1.000000 -0.000000 0.000000
vn -0.013257 0.999058 -0.041308
vn -0.006367 -0.996111 -0.087881
vn -0.016077 -0.998442 0.053440
vn -0.047979 -0.997646 0.048991
vn -0.016520 -0.996597 -0.080762
vn -1.000000 -0.000000 0.000000
vn -1.000000 -0.000000 0.000000
vn -0.018787 0.999055 -0.039186
vn -1.000000 0.000000 0.000000
vn -0.003960 -0.992235 -0.124311
vn -0.006367 -0.996111 -0.087881
vn -0.016520 -0.996597 -0.080762
vn -0.033812 0.998861 0.033669
vn -0.228446 -0.895708 0.381470
vn -0.063804 -0.996881 0.046457
vn -0.047979 -0.997646 0.048991
vn -0.020303 -0.996849 -0.076679
vn -0.159638 -0.900566 0.404347
vn -0.335391 -0.731361 0.593822
vn -0.228446 -0.895708 0.381470
vn -0.159638 -0.900566 0.404347
vn -0.232100 -0.739383 0.632015
vn -0.174344 0.941670 0.287859
vn -0.266395 0.843214 0.466930
vn -0.182793 0.849374 0.495126
vn -0.120298 0.944925 0.304377
vn -0.046840 0.998391 0.031953
vn -0.174344 0.941670 0.287859
vn -0.120298 0.944925 0.304377
vn -0.033812 0.998861 0.033669
vn -0.019359 0.999204 -0.034878
vn -0.046840 0.998391 0.031953
vn -0.033812 0.998861 0.033669
vn -0.014304 0.999222 -0.036741
vn -0.063804 -0.996881 0.046457
vn -0.019359 0.999204 -0.034878
vn -0.014304 0.999222 -0.036741
#end 120 vertex normals

#begin 30 faces
f 6//2 8//1 25//37 20//39 
f 1//7 39//83 34//18 4//19 
f 5//11 10//10 9//9 35//8 
f 7//5 2//4 3//42 17//43 
f 11//12 6//6 20//44 15//45 
f 31//28 32//29 39//82 1//40 
f 8//14 7//13 17//46 25//56 
f 38//48 33//49 31//50 1//60 
f 10//33 15//32 14//31 9//30 
f 16//16 11//15 15//57 10//58 
f 12//22 23//20 27//59 26//61 
f 4//68 36//69 38//70 1//72 
f 21//24 16//23 10//63 5//65 
f 27//85 5//86 35//87 18//88 
f 15//55 20//54 19//53 14//52 
f 23//26 21//25 5//66 27//73 
f 34//34 39//27 28//90 37//17 
f 26//93 27//94 18//95 30//21 
f 4//118 34//100 18//38 35//3 
f 17//71 3//64 13//47 22//41 
f 20//77 25//76 24//75 19//74 
f 34//81 37//80 30//79 18//78 
f 39//36 32//35 29//92 28//89 
f 25//51 17//62 22//67 24//96 
f 36//97 4//98 35//99 9//101 
f 38//102 36//103 9//104 14//105 
f 33//106 38//107 14//108 19//109 
f 31//110 33//111 19//112 24//113 
f 32//114 31//115 24//116 22//117 
f 29//91 32//119 22//120 13//84 
#end 30 faces
